<svg width="166" height="83" viewBox="0 0 166 83" fill="none" xmlns="http://www.w3.org/2000/svg">
<g id="Vector">
<path d="M165.197 0.829585V50.7015H1.5518V0.829585H165.197ZM166 0H0.749146V51.5311H166V0Z" fill="white"/>
<path d="M147.135 18.179H145.971L148.435 12.5986H151.606L147.178 18.1264L147.135 18.179ZM11.3175 12.394V15.1095H17.4497V35.827H20.2457V15.1095H26.3753V12.394H11.3175ZM45.2029 35.8298H41.7435L36.9249 25.8803C36.6627 25.8969 36.4058 25.8969 36.1516 25.8969H31.6434V35.8298H28.8475V12.394H36.149C38.9636 12.394 40.882 13.0245 42.0966 14.2246C43.314 15.4248 43.7555 17.1448 43.7528 19.1441C43.7822 22.1029 42.712 24.4617 39.8278 25.3964L45.2002 35.827L45.2029 35.8298ZM36.569 15.1123H31.6461V23.1786H36.569C40.3709 23.1067 40.6786 21.525 40.7562 19.1468C40.6786 16.7659 40.3709 15.1869 36.569 15.1123ZM60.4694 12.3968H47.1828V35.8326H60.7611V33.117H49.9787V24.7521H59.723V22.0366H49.9787V15.115H60.4694V12.3968ZM70.8906 22.3352C69.1435 22.114 67.8137 21.9066 66.9924 21.4282C66.1897 20.9498 65.7884 20.2944 65.7723 18.815C65.8339 16.5336 66.4787 14.8192 70.7515 14.7528C72.916 14.7528 74.441 15.0431 76.4236 15.9059L76.9052 16.1161V13.2844L76.7018 13.1876C75.4336 12.5848 73.5474 12.0954 70.7836 12.0954C67.6131 12.0954 65.6278 13.0466 64.4613 14.3933C63.2948 15.7372 62.9737 17.413 62.9737 18.7846C62.9282 22.6615 65.1222 24.4396 70.3822 25.0507C72.2203 25.2858 73.4484 25.5844 74.1574 26.1264C74.853 26.6629 75.1634 27.4316 75.1741 28.9359C75.1206 31.5215 74.0852 33.424 69.5689 33.4848C66.5456 33.4821 64.876 32.7216 63.4286 32.2294L62.9737 32.0745V34.8039L63.1797 34.8979C64.6486 35.5643 67.4312 36.134 69.5421 36.1395H69.5502C72.9053 36.1395 75.0644 35.1772 76.3674 33.7641C77.673 32.3511 78.0904 30.5398 78.0904 28.9359C78.1225 24.4589 75.2624 22.8661 70.8879 22.338L70.8906 22.3352ZM113.643 21.0189C112.792 20.2336 111.548 19.8492 109.967 19.8492C108.5 19.8492 106.97 20.4659 105.472 21.5139C104.664 20.3912 103.259 19.8492 101.346 19.8492C100.193 19.8492 98.9167 20.1976 97.6913 20.9443L97.4237 20.1479H95.3582V35.5422H97.6886V22.8634C98.7856 22.2965 99.7006 22.0172 101.343 22.0144C102.983 22.0393 103.955 22.5481 103.976 24.4396V35.5422H106.309V22.8634C107.361 22.3214 108.302 22.0172 109.964 22.0144C111.604 22.0393 112.573 22.5481 112.591 24.4396V35.5422H114.927V24.5281C114.927 22.9906 114.491 21.8098 113.64 21.0189H113.643ZM136.286 21.0189C135.435 20.2336 134.191 19.8492 132.607 19.8492C131.143 19.8492 129.608 20.4659 128.112 21.5139C127.307 20.3912 125.905 19.8492 123.989 19.8492C122.833 19.8492 121.562 20.1976 120.334 20.9443L120.067 20.1479H118.004V35.5422H120.337V22.8634C121.431 22.2965 122.352 22.0172 123.992 22.0144C125.632 22.0393 126.603 22.5481 126.624 24.4396V35.5422H128.957V22.8634C130.009 22.3214 130.951 22.0172 132.612 22.0144C134.255 22.0393 135.224 22.5481 135.242 24.4396V35.5422H137.575V24.5281C137.575 22.9906 137.142 21.8098 136.291 21.0189H136.286ZM82.8181 28.322C82.8716 31.939 84.8167 33.5235 87.1364 33.6618C88.4367 33.6618 89.5176 33.5595 90.8848 32.4008L92.0888 34.1153C90.6734 35.3763 89.1831 35.8713 87.1364 35.8713C82.9572 35.8713 80.4609 32.7188 80.4609 28.0676V27.2491C80.4609 21.6356 84.0194 19.7524 86.4086 19.7524C90.5798 19.7524 92.7122 22.8883 92.3563 28.322H82.8181ZM86.6334 21.76C84.1371 21.76 82.8422 23.9418 82.8422 26.3172H90.0527C90.3149 24.5336 89.4079 21.76 86.6334 21.76ZM152.248 28.322H142.71C142.763 31.939 144.706 33.5235 147.028 33.6618C148.326 33.6618 149.409 33.5595 150.771 32.4008L151.978 34.1153C150.562 35.3763 149.072 35.8713 147.028 35.8713C142.846 35.8713 140.352 32.7188 140.352 28.0676V27.2491C140.352 21.6356 143.906 19.7524 146.3 19.7524C150.463 19.7524 152.598 22.8883 152.245 28.322H152.248ZM146.525 21.76C144.029 21.76 142.736 23.9418 142.736 26.3172H149.947C150.209 24.5336 149.302 21.76 146.525 21.76ZM154.61 38.7278H154.292L153.77 37.8789H153.457V38.7278H153.163V36.7589H153.899C154.126 36.7589 154.292 36.8059 154.399 36.9C154.511 36.9912 154.565 37.1322 154.565 37.323C154.565 37.5 154.514 37.63 154.42 37.7129C154.321 37.7931 154.206 37.8429 154.062 37.8595L154.608 38.7278H154.61ZM153.957 37.6272C154.022 37.6217 154.07 37.6079 154.123 37.5857C154.166 37.5664 154.206 37.5332 154.233 37.489C154.263 37.4475 154.273 37.3839 154.273 37.3064C154.273 37.2401 154.263 37.1875 154.236 37.1488C154.212 37.1101 154.18 37.0797 154.142 37.0603C154.105 37.041 154.056 37.0272 154.003 37.0161C153.957 37.0106 153.907 37.005 153.856 37.005H153.465V37.63H153.776C153.845 37.63 153.904 37.6245 153.963 37.6245L153.957 37.6272ZM155.432 37.7544C155.432 38.6891 154.696 39.4468 153.794 39.4468C152.893 39.4468 152.157 38.6891 152.157 37.7544C152.157 36.8198 152.89 36.0593 153.794 36.0593C154.699 36.0593 155.432 36.817 155.432 37.7544ZM155.161 37.7544C155.161 36.9746 154.549 36.3441 153.794 36.3441C153.04 36.3441 152.427 36.9746 152.427 37.7544C152.427 38.5342 153.042 39.1675 153.794 39.1675C154.546 39.1675 155.161 38.5342 155.161 37.7544Z" fill="white"/>
<path d="M0 61.746H1.77655V71.0402H14.2926V61.746H16.0692V82.765H14.2926V72.8182H1.77655V82.765H0V61.746Z" fill="white"/>
<path d="M34.7978 61.5082L44.6223 82.7622H42.7602L39.7823 76.3384H29.816L26.8649 82.7622H25.0027L34.7978 61.5082ZM30.616 74.5935H38.9797L34.7978 65.5068L30.616 74.5935Z" fill="white"/>
<path d="M53.5586 61.746H55.3351V82.765H53.5586V61.746Z" fill="white"/>
<path d="M71.316 73.2607H68.6806V82.7622H66.9041V61.7433H72.2899C76.4717 61.7433 78.9065 63.903 78.9065 67.5144C78.9065 70.7415 76.8731 72.8735 73.3788 73.2275L81.0843 82.7594H78.8797L71.3187 73.2579L71.316 73.2607ZM72.2337 71.5739C75.4711 71.5739 77.0443 70.0944 77.0443 67.5172C77.0443 64.9399 75.4684 63.4605 72.2337 63.4605H68.6833V71.5711H72.2337V71.5739Z" fill="white"/>
<path d="M101.646 61.746H108.348C112.329 61.746 115.307 64.9427 115.307 68.8805C115.307 72.8182 112.329 76.0149 108.348 76.0149H106.229V82.765H101.646V61.746ZM108.292 71.6043C109.782 71.6043 110.868 70.3018 110.868 68.8805C110.868 67.4591 109.779 66.1871 108.292 66.1871H106.229V71.6043H108.292Z" fill="white"/>
<path d="M127.967 74.2368H127.911V82.7622H123.328V61.7433H131.004C134.327 61.7433 137.048 64.5556 137.048 67.99C137.048 70.6254 135.472 72.904 133.123 73.8524L139.74 82.7622H134.268L127.967 74.2368ZM130.488 70.241C131.719 70.241 132.607 69.3229 132.607 68.1698C132.607 67.0167 131.719 66.0682 130.488 66.0682H127.911V70.241H130.488Z" fill="white"/>
<path d="M144.893 72.2541C144.893 66.3336 149.562 61.5082 155.29 61.5082C161.018 61.5082 165.687 66.3336 165.687 72.2541C165.687 78.1746 161.018 83 155.29 83C149.562 83 144.893 78.1746 144.893 72.2541ZM161.074 72.2541C161.074 68.8805 158.583 66.0682 155.29 66.0682C151.996 66.0682 149.505 68.8805 149.505 72.2541C149.505 75.6278 151.996 78.44 155.29 78.44C158.583 78.44 161.074 75.6278 161.074 72.2541Z" fill="white"/>
</g>
</svg>
