<svg width="30" height="30" viewBox="0 0 30 30" fill="none" xmlns="http://www.w3.org/2000/svg">
<path d="M14.9999 3.22461C9.52011 3.22461 4.63131 7.16331 3.48501 12.5267C2.91231 15.2066 3.29811 18.0563 4.57581 20.4812C5.80551 22.8149 7.82151 24.701 10.2335 25.7699C12.7424 26.882 15.6227 27.0758 18.2597 26.3174C20.8037 25.586 23.0594 23.9807 24.5951 21.8258C27.806 17.3207 27.3767 10.9925 23.5991 6.95571C21.3851 4.58991 18.2405 3.22461 14.9999 3.22461ZM20.6486 15.6287L17.4386 18.9161C16.6259 19.7486 15.3413 18.4874 16.1507 17.6588L17.7704 16.0001H10.0946C9.54951 16.0001 9.09471 15.545 9.09471 15.0002C9.09471 14.4554 9.54981 14.0003 10.0946 14.0003H17.732L16.0802 12.3488C15.2594 11.528 16.532 10.2551 17.3528 11.0759L20.6411 14.3639C20.9897 14.7122 20.993 15.2762 20.6486 15.6287Z" fill="white" fill-opacity="0.45"/>
</svg>
