<svg width="20" height="22" viewBox="0 0 20 22" fill="none" xmlns="http://www.w3.org/2000/svg">
<path d="M14.6797 5.5V5.55H14.7297H18.3047C18.6087 5.55 18.8996 5.66152 19.1134 5.85892C19.3271 6.0562 19.4464 6.32287 19.4464 6.6V18.7C19.4464 19.5606 19.076 20.3869 18.4153 20.9967C17.7545 21.6067 16.8575 21.95 15.9214 21.95H4.00469C3.06857 21.95 2.17151 21.6067 1.51069 20.9967C0.850014 20.3869 0.479688 19.5606 0.479688 18.7V6.6C0.479688 6.32287 0.598914 6.0562 0.812633 5.85892C1.02649 5.66152 1.31733 5.55 1.62135 5.55H5.19635H5.24635V5.5V4.4C5.24635 3.24766 5.74223 2.14162 6.62639 1.32547C7.51069 0.509197 8.71085 0.05 9.96302 0.05C11.2152 0.05 12.4154 0.509197 13.2996 1.32547C14.1838 2.14162 14.6797 3.24766 14.6797 4.4V5.5ZM12.3464 5.55H12.3964V5.5V4.4C12.3964 3.80191 12.1389 3.22922 11.6822 2.80763C11.2256 2.38616 10.6071 2.15 9.96302 2.15C9.31889 2.15 8.70043 2.38616 8.24384 2.80763C7.78711 3.22922 7.52969 3.80191 7.52969 4.4V5.5V5.55H7.57969H12.3464ZM2.81302 7.65H2.76302V7.7V18.7C2.76302 19.0063 2.8949 19.2993 3.12814 19.5146C3.36125 19.7297 3.67661 19.85 4.00469 19.85H15.9214C16.2494 19.85 16.5648 19.7297 16.7979 19.5146C17.0311 19.2993 17.163 19.0063 17.163 18.7V7.7V7.65H17.113H14.7297H14.6797V7.7V8.8C14.6797 9.07713 14.5605 9.3438 14.3467 9.54108C14.1329 9.73848 13.842 9.85 13.538 9.85C13.234 9.85 12.9432 9.73848 12.7293 9.54108C12.5156 9.3438 12.3964 9.07713 12.3964 8.8V7.7V7.65H12.3464H7.57969H7.52969V7.7V8.8C7.52969 9.07713 7.41046 9.3438 7.19674 9.54108C6.98289 9.73848 6.69204 9.85 6.38802 9.85C6.084 9.85 5.79315 9.73848 5.5793 9.54108C5.36558 9.3438 5.24635 9.07713 5.24635 8.8V7.7V7.65H5.19635H2.81302Z" fill="white" stroke="white" stroke-width="0.1"/>
</svg>
