<svg width="68" height="34" viewBox="0 0 68 34" fill="none" xmlns="http://www.w3.org/2000/svg">
<path d="M67.6712 0.33983V20.7693H0.635678V0.33983H67.6712ZM68 0H0.306879V21.1091H68V0Z" fill="white"/>
<path d="M60.2721 7.44681H59.7954L60.8048 5.16089H62.1035L60.2897 7.42529L60.2721 7.44681ZM4.63606 5.07706V6.18944H7.14809V14.6761H8.2934V6.18944H10.8043V5.07706H4.63606ZM18.5169 14.6773H17.0997L15.1258 10.6016C15.0184 10.6084 14.9132 10.6084 14.8091 10.6084H12.9623V14.6773H11.817V5.07706H14.808C15.961 5.07706 16.7468 5.33533 17.2444 5.82695C17.7431 6.31857 17.9239 7.02316 17.9228 7.84215C17.9349 9.05421 17.4965 10.0205 16.315 10.4033L18.5158 14.6761L18.5169 14.6773ZM14.9801 6.19057H12.9634V9.49485H14.9801C16.5375 9.4654 16.6635 8.81746 16.6953 7.84328C16.6635 6.86797 16.5375 6.22116 14.9801 6.19057ZM24.7706 5.07819H19.3279V14.6784H24.8901V13.566H20.4732V10.1394H24.4648V9.02702H20.4732V6.1917H24.7706V5.07819ZM29.0395 9.14936C28.3238 9.05874 27.7791 8.97378 27.4427 8.77781C27.1139 8.58184 26.9495 8.31338 26.9429 7.70735C26.9681 6.77281 27.2322 6.0705 28.9825 6.04331C29.8692 6.04331 30.4939 6.16225 31.306 6.51568L31.5033 6.60177V5.44181L31.42 5.40217C30.9005 5.15522 30.1278 4.95472 28.9957 4.95472C27.6969 4.95472 26.8837 5.34439 26.4058 5.89605C25.928 6.44658 25.7965 7.13303 25.7965 7.69489C25.7778 9.28303 26.6766 10.0114 28.8313 10.2617C29.5842 10.358 30.0873 10.4804 30.3777 10.7024C30.6627 10.9221 30.7898 11.237 30.7942 11.8533C30.7723 12.9124 30.3481 13.6918 28.4981 13.7167C27.2596 13.7155 26.5757 13.404 25.9828 13.2024L25.7965 13.139V14.257L25.8809 14.2955C26.4826 14.5685 27.6224 14.8019 28.4871 14.8041H28.4904C29.8648 14.8041 30.7493 14.4099 31.283 13.8311C31.8179 13.2522 31.9888 12.5103 31.9888 11.8533C32.002 10.0193 30.8304 9.36685 29.0384 9.15049L29.0395 9.14936ZM46.5525 8.61016C46.2039 8.28846 45.6943 8.131 45.0466 8.131C44.4459 8.131 43.819 8.38361 43.2053 8.81293C42.8743 8.35302 42.2989 8.131 41.5153 8.131C41.0429 8.131 40.5201 8.27373 40.0181 8.57958L39.9085 8.25334H39.0624V14.5595H40.017V9.36572C40.4664 9.1335 40.8412 9.01909 41.5142 9.01796C42.186 9.02815 42.5838 9.23658 42.5926 10.0114V14.5595H43.5483V9.36572C43.979 9.14369 44.3648 9.01909 45.0455 9.01796C45.7173 9.02815 46.1141 9.23658 46.1217 10.0114V14.5595H47.0785V10.0476C47.0785 9.41782 46.8999 8.93413 46.5514 8.61016H46.5525ZM55.8279 8.61016C55.4793 8.28846 54.9697 8.131 54.3209 8.131C53.7214 8.131 53.0923 8.38361 52.4796 8.81293C52.1497 8.35302 51.5754 8.131 50.7907 8.131C50.3172 8.131 49.7966 8.27373 49.2935 8.57958L49.1839 8.25334H48.3389V14.5595H49.2946V9.36572C49.7429 9.1335 50.1199 9.01909 50.7918 9.01796C51.4636 9.02815 51.8615 9.23658 51.8702 10.0114V14.5595H52.8259V9.36572C53.2567 9.14369 53.6424 9.01909 54.3231 9.01796C54.996 9.02815 55.3928 9.23658 55.4004 10.0114V14.5595H56.3561V10.0476C56.3561 9.41782 56.1786 8.93413 55.8301 8.61016H55.8279ZM33.9255 11.6018C33.9474 13.0835 34.7442 13.7325 35.6944 13.7892C36.2271 13.7892 36.6698 13.7473 37.2299 13.2726L37.7231 13.9749C37.1433 14.4915 36.5328 14.6943 35.6944 14.6943C33.9825 14.6943 32.9599 13.4029 32.9599 11.4976V11.1623C32.9599 8.86277 34.4176 8.09136 35.3963 8.09136C37.105 8.09136 37.9785 9.37591 37.8327 11.6018H33.9255ZM35.4884 8.91374C34.4658 8.91374 33.9353 9.8075 33.9353 10.7805H36.889C36.9965 10.0499 36.6249 8.91374 35.4884 8.91374ZM62.3666 11.6018H58.4594C58.4813 13.0835 59.277 13.7325 60.2283 13.7892C60.7599 13.7892 61.2037 13.7473 61.7616 13.2726L62.2559 13.9749C61.6761 14.4915 61.0656 14.6943 60.2283 14.6943C58.5153 14.6943 57.4938 13.4029 57.4938 11.4976V11.1623C57.4938 8.86277 58.9493 8.09136 59.9302 8.09136C61.6356 8.09136 62.5102 9.37591 62.3655 11.6018H62.3666ZM60.0222 8.91374C58.9997 8.91374 58.4703 9.8075 58.4703 10.7805H61.424C61.5314 10.0499 61.1599 8.91374 60.0222 8.91374ZM63.3343 15.8644H63.2039L62.9902 15.5166H62.862V15.8644H62.7414V15.0579H63.0428C63.136 15.0579 63.2039 15.0771 63.2478 15.1156C63.2938 15.153 63.3157 15.2108 63.3157 15.289C63.3157 15.3615 63.2949 15.4147 63.2565 15.4487C63.216 15.4815 63.1689 15.5019 63.1097 15.5087L63.3332 15.8644H63.3343ZM63.0669 15.4136C63.0932 15.4113 63.113 15.4056 63.1349 15.3966C63.1524 15.3886 63.1689 15.375 63.1798 15.3569C63.1919 15.3399 63.1962 15.3139 63.1962 15.2822C63.1962 15.255 63.1919 15.2334 63.1809 15.2176C63.171 15.2017 63.1579 15.1893 63.1425 15.1813C63.1272 15.1734 63.1075 15.1678 63.0856 15.1632C63.0669 15.161 63.0461 15.1587 63.0253 15.1587H62.8653V15.4147H62.9924C63.0209 15.4147 63.045 15.4124 63.0691 15.4124L63.0669 15.4136ZM63.6708 15.4657C63.6708 15.8485 63.3694 16.1589 63.0001 16.1589C62.6307 16.1589 62.3293 15.8485 62.3293 15.4657C62.3293 15.0828 62.6296 14.7713 63.0001 14.7713C63.3705 14.7713 63.6708 15.0817 63.6708 15.4657ZM63.5601 15.4657C63.5601 15.1462 63.3091 14.888 63.0001 14.888C62.691 14.888 62.44 15.1462 62.44 15.4657C62.44 15.7851 62.6921 16.0445 63.0001 16.0445C63.308 16.0445 63.5601 15.7851 63.5601 15.4657Z" fill="white"/>
<path d="M0 25.2936H0.727742V29.1008H5.85481V25.2936H6.58255V33.9037H5.85481V29.8292H0.727742V33.9037H0V25.2936Z" fill="white"/>
<path d="M14.2545 25.1961L18.279 33.9026H17.5162L16.2964 31.2712H12.2138L11.0049 33.9026H10.2421L14.2545 25.1961ZM12.5415 30.5564H15.9676L14.2545 26.8341L12.5415 30.5564Z" fill="white"/>
<path d="M21.9397 25.2936H22.6674V33.9037H21.9397V25.2936Z" fill="white"/>
<path d="M29.2138 30.0104H28.1342V33.9026H27.4065V25.2924H29.6127C31.3258 25.2924 32.3231 26.1771 32.3231 27.6565C32.3231 28.9784 31.4902 29.8518 30.0588 29.9968L33.2153 33.9015H32.3122L29.2149 30.0093L29.2138 30.0104ZM29.5897 29.3194C30.9159 29.3194 31.5603 28.7134 31.5603 27.6576C31.5603 26.6019 30.9148 25.9959 29.5897 25.9959H28.1353V29.3183H29.5897V29.3194Z" fill="white"/>
<path d="M41.638 25.2936H44.3835C46.0143 25.2936 47.2342 26.603 47.2342 28.2161C47.2342 29.8292 46.0143 31.1386 44.3835 31.1386H43.5154V33.9037H41.638V25.2936ZM44.3605 29.3319C44.9709 29.3319 45.4159 28.7983 45.4159 28.2161C45.4159 27.6339 44.9698 27.1128 44.3605 27.1128H43.5154V29.3319H44.3605Z" fill="white"/>
<path d="M52.4204 30.4103H52.3974V33.9026H50.52V25.2924H53.6644C55.0256 25.2924 56.1402 26.4444 56.1402 27.8513C56.1402 28.9309 55.4947 29.8643 54.5324 30.2528L57.2428 33.9026H55.0015L52.4204 30.4103ZM53.4528 28.7734C53.957 28.7734 54.3209 28.3973 54.3209 27.925C54.3209 27.4526 53.957 27.0641 53.4528 27.0641H52.3974V28.7734H53.4528Z" fill="white"/>
<path d="M59.3537 29.5981C59.3537 27.1728 61.2662 25.1961 63.6127 25.1961C65.9593 25.1961 67.8718 27.1728 67.8718 29.5981C67.8718 32.0233 65.9593 34 63.6127 34C61.2662 34 59.3537 32.0233 59.3537 29.5981ZM65.9823 29.5981C65.9823 28.2161 64.9619 27.0641 63.6127 27.0641C62.2635 27.0641 61.2432 28.2161 61.2432 29.5981C61.2432 30.98 62.2635 32.1321 63.6127 32.1321C64.9619 32.1321 65.9823 30.98 65.9823 29.5981Z" fill="white"/>
</svg>
